# xmcd
#
# Track frame offsets:
#	225
#	11032
#	26387
#	36256
#	53953
#	62157
#	70800
#	83344
#	90944
#	100842
#
# Disc length: 1493
#
# Revision: 1
# Processed by: cddbd v1.5.1PL0 Copyright (c) Steve Scherf et al.
# Submitted via: MusicManager v6.0.0.0
# Normalized: r0:DSETVAR1
#
DISCID=7105d20a
DTITLE=Various Artist - Louisiana Hayride Classic Country Radio Vol. 3
DYEAR=1900
DGENRE=country
TTITLE0=George Jones - Why Baby Why (live)
TTITLE1=Louvin Brothers - My Baby's Gone (live)
TTITLE2=Carl Smith - You Are the One (live)
TTITLE3=Johnny Horton - Whispering Pines (live)
TTITLE4=Johnny Cash - Hey Porter (live)
TTITLE5=Browns - Draggin' Main Street
TTITLE6=Roy Acuff - Wabash Cannonball (live)
TTITLE7=Eddy Arnold - Cattle Call (live)
TTITLE8=Sonny James - The Minute You're Gone
TTITLE9=Jim Reeves - Have I Told You Lately
EXTD=
EXTT0=
EXTT1=
EXTT2=
EXTT3=
EXTT4=
EXTT5=
EXTT6=
EXTT7=
EXTT8=
EXTT9=
PLAYORDER=
